<svg xmlns="http://www.w3.org/2000/svg" xmlns:xlink="http://www.w3.org/1999/xlink" width="512" height="512" xml:space="preserve"><g><path fill="#A6A6A6" d="M426.333 341.075s13.333-25.407-19.333-51.32c0 0 20.216 30.129 6.441 53.441l12.892-2.121z"/><circle fill="#73B4B2" cx="256" cy="256.491" r="157.441"/><path fill="#E3E3E3" d="M290.315 332.534s79.352 57.271 136.019 8.54c0 0-81.786-3.9-99.056-51.32"/><defs><circle id="a" cx="256" cy="256.491" r="157.441"/></defs><clipPath id="b"><use xlink:href="#a" overflow="visible"/></clipPath><g clip-path="url(#b)"><path fill="#629997" d="M272.559 81.3v40l-63.435 16.25-15.033 27.544-31.532 8.456 27.032 34.274 27.968-32.524H256l38.559 21.977V240.3l27.06 1.606 7.499 30.096-20.999 17.048-25.498 35.746-6 27.881-10.639 15.554-20.423 1.696v-45.131l-17.076-34.246-20.859-12.798-31.498-50.893-41.998-29.411-10.535 5.352-12.034-47.25v-44.153l143.965-70.496z"/><path fill="#4FB463" d="m387.615 142.55-13.499 54.898 13.499 32.286 25.826 26.757 26.672-14.585z"/><path fill="#629997" d="m225.842 438.547 5.891-18.937 11.944-5.679 12.128-22.953 19.754-16.509v22.191l16.061 9.848 55.497-9.848 7.5 35.721-6 14.999z"/></g><g clip-path="url(#b)"><path fill="#629997" d="m377.615 155.55-13.499 54.898 13.499 32.286 25.826 26.757 26.672-14.585z"/><path fill="#ADD660" d="M263 84.3v40l-63.655 16.25-15.144 27.544-31.587 8.456 27.005 34.35 27.94-32.448H246l39 21.825V243.3l26.839 1.606 7.39 30.096-21.054 17.048-25.527 35.746-6.013 27.881-10.426 15.554L236 372.927v-45.131l-17.296-34.246-20.969-12.798-31.554-50.893-42.025-29.411-10.328 5.352L102 158.55v-44.153l143.965-70.496zM377.615 145.55l-13.499 54.898 13.499 32.286 25.826 26.757 26.672-14.585zM215.842 441.547l5.891-18.937 11.944-5.679 12.349-22.953L266 377.469v22.191l15.841 9.848 55.387-9.848 7.444 35.721-6.027 14.999z"/></g><path fill="#FFD161" d="M122.515 188.693a4.5 4.5 0 0 0-6.364 0l-10.253 10.253a4.5 4.5 0 0 0 0 6.364l.707.707 16.617-16.617-.707-.707z"/><path fill="#CF5341" d="m106.605 206.017 22.874 22.874a4.5 4.5 0 0 0 6.364 0l10.253-10.253a4.5 4.5 0 0 0 0-6.364L123.222 189.4l-16.617 16.617z"/><path fill="#FFD161" d="M97.06 235.362a4.5 4.5 0 0 0-6.364 0l-10.253 10.253a4.5 4.5 0 0 0 0 6.364l.707.707 16.617-16.617-.707-.707z"/><path fill="#CF5341" d="m81.15 252.686 22.874 22.874a4.5 4.5 0 0 0 6.364 0l10.253-10.253a4.5 4.5 0 0 0 0-6.364l-22.874-22.874-16.617 16.617z"/><path fill="#FF6650" d="M139.095 154.715 83.659 330.149l10.926 10.926 86.267-145.664z"/><path fill="#FFD161" d="m141.57 157.126-2.855-1.209-55.056 174.232 10.926 10.926 3.682-6.218-8.632-8.632 61.693-159.588zM190.044 121.164a4.5 4.5 0 0 1 0-6.364l10.253-10.253a4.5 4.5 0 0 1 6.364 0l.707.707-16.617 16.617-.707-.707z"/><path fill="#CF5341" d="m207.368 105.254 22.874 22.874a4.5 4.5 0 0 1 0 6.364l-10.253 10.253a4.5 4.5 0 0 1-6.364 0l-22.874-22.874 16.617-16.617z"/><path fill="#FFD161" d="M236.713 95.709a4.5 4.5 0 0 1 0-6.364l10.253-10.253a4.5 4.5 0 0 1 6.364 0l.707.707-16.617 16.617-.707-.707z"/><path fill="#CF5341" d="m254.037 79.799 22.874 22.874a4.5 4.5 0 0 1 0 6.364l-10.253 10.253a4.5 4.5 0 0 1-6.364 0L237.42 96.416l16.617-16.617z"/><path fill="#FF6650" d="M156.066 137.744 331.5 82.308l10.926 10.926-145.664 86.267z"/><path fill="#FFD161" d="m158.477 140.219-1.209-2.855L331.5 82.308l10.926 10.926-6.218 3.682-8.632-8.632-159.588 61.693z"/><path fill="#FF6650" d="M303.399 278.756 112.969 80.859s-29.168-25.986-42.78-12.374 12.021 43.134 12.021 43.134l197.897 190.429-2.736 35.845 9.546 9.546 16.617-28.638 14.142-2.121.354-.354 2.121-14.142 28.638-16.617-9.546-9.546-35.844 2.735z"/><path fill="#CF5341" d="M112.969 80.859s-22.4-19.955-37.101-15.73a12.985 12.985 0 0 0-5.679 3.355 13.106 13.106 0 0 0-3.374 5.706c-4.278 14.77 15.395 37.428 15.395 37.428l197.897 190.429-.014.18 9.098 1.805S123.693 150.903 93.126 111.283C79.623 93.78 75.435 81.523 74.965 73.291c8.232.471 20.489 4.658 37.993 18.163 39.619 30.567 192.749 196.065 192.749 196.065l-1.747-8.805-.56.043L112.969 80.859z"/><path fill="#FFD161" d="m279.823 302.117 9.052 2.244-6.553 32.117 6.717 6.718-2.475 4.596-9.546-9.546zM303.468 278.472l2.244 9.052 32.117-6.554 6.718 6.718 4.596-2.475-9.546-9.546zM281.787 285.037l4.596-4.596 65.407 65.406-4.596 4.596z"/><path fill="#6FEBE7" d="M87.514 86.516c-11.314 11.314 4.95 25.456 4.95 25.456-5.362-15.615 4.891-25.868 20.506-20.506-.001 0-14.143-16.264-25.456-4.95z"/></g></svg>